<svg width="19" height="116" viewBox="0 0 19 116" fill="none" xmlns="http://www.w3.org/2000/svg">
<path d="M13.24 83.536H5.048L1.208 0.975998H16.824L13.24 83.536ZM0.696001 107.216C0.696001 104.656 1.67733 102.48 3.64 100.688C5.60267 98.896 7.82133 98 10.296 98C13.0267 98 15.1173 98.768 16.568 100.304C18.0187 101.84 18.744 103.76 18.744 106.064C18.744 108.795 17.7627 111.013 15.8 112.72C13.9227 114.427 11.6187 115.28 8.888 115.28C6.66933 115.28 4.74933 114.555 3.128 113.104C1.50667 111.568 0.696001 109.605 0.696001 107.216Z" fill="#D85555"/>
</svg>
