<svg width="1728" height="800" viewBox="100 0 1728 900" fill="none" xmlns="http://www.w3.org/2000/svg">
<path d="M707.08 30.7691C499.159 -33.9617 306.879 215.31 59.6217 63.1442C-187.635 -89.0219 -34.7527 833.898 -29.223 913C-29.223 913 9 728.642 173 842.948C337 957.253 379.921 824.262 564.961 761.211C750 698.161 845 822.19 984 876.114C1123 930.037 1344.57 717.718 1525.54 827.655C1706.52 937.591 1734.01 876.114 1734.01 876.114L1810 80.5212C1787.79 60.4202 1690.67 14.5557 1545 7.28166C1447.96 2.43605 1427.59 -21.2286 1197.05 63.1442C966.5 147.517 915 95.5 707.08 30.7691Z" fill="url(#paint0_linear_33_12)"/>
<defs>
<linearGradient id="paint0_linear_33_12" x1="864.5" y1="0.548889" x2="864.5" y2="913" gradientUnits="userSpaceOnUse">
<stop stop-color="#00C1FE" stop-opacity="0.09"/>
<stop offset="0.416667" stop-color="#00C2FF"/>
<stop offset="0.9999" stop-color="#42BDE3" stop-opacity="0.802083"/>
<stop offset="1" stop-color="#42BDE3"/>
</linearGradient>
</defs>
</svg>
